<svg width="512" height="390" viewBox="0 0 512 390" fill="none" xmlns="http://www.w3.org/2000/svg">
<path d="M497 0H15C6.599 0 0 6.599 0 15V360L196 225L316 375L376 315L507.8 385.8C510.201 382.8 512 379.2 512 375V15C512 6.599 505.401 0 497 0Z" fill="url(#paint0_linear)"/>
<path d="M346 180C370.814 180 391 159.814 391 135C391 110.186 370.814 90 346 90C321.186 90 301 110.186 301 135C301 159.814 321.186 180 346 180ZM386.607 265.606C380.749 259.748 371.252 259.748 365.394 265.606L316 315L206.469 178.086C200.884 171.105 190.471 170.528 184.149 176.85L0 360V375C0 383.399 6.599 390 15 390H497C501.2 390 504.8 388.2 507.8 385.8L386.607 265.606Z" fill="url(#paint1_linear)"/>
<defs>
<linearGradient id="paint0_linear" x1="256" y1="385.8" x2="256" y2="0" gradientUnits="userSpaceOnUse">
<stop stop-color="#FFC2CC"/>
<stop offset="1" stop-color="#FFF2F4"/>
</linearGradient>
<linearGradient id="paint1_linear" x1="253.9" y1="390" x2="253.9" y2="90" gradientUnits="userSpaceOnUse">
<stop stop-color="#3A65FD"/>
<stop offset="1" stop-color="#FFA68D"/>
</linearGradient>
</defs>
</svg>
