<svg width="260" height="208" viewBox="0 0 260 208" fill="none" xmlns="http://www.w3.org/2000/svg">
<path d="M225.333 0H34.6667C15.5208 0 0 15.5208 0 34.6667V173.333C0 192.479 15.5208 208 34.6667 208H225.333C244.479 208 260 192.479 260 173.333V34.6667C260 15.5208 244.479 0 225.333 0Z" fill="#EEEEEE"/>
<path d="M160.333 78C172.3 78 182 68.2995 182 56.3334C182 44.3672 172.3 34.6667 160.333 34.6667C148.367 34.6667 138.667 44.3672 138.667 56.3334C138.667 68.2995 148.367 78 160.333 78Z" fill="#0077ED"/>
<path d="M260 95.3334V173.333C260 192.479 244.479 208 225.333 208H166.14C165.857 185.477 157.631 163.778 142.913 146.727C168.913 118.213 211.293 98.6267 260 95.3334Z" fill="#8B8A8A"/>
<path d="M166.14 208H34.6667C15.5208 208 0 192.479 0 173.333V90.3067C2.42667 90.22 4.76667 90.1333 7.19333 90.1333C50.421 89.1837 92.6259 103.344 126.533 130.173C132.505 135.161 137.989 140.703 142.913 146.727C157.631 163.778 165.857 185.477 166.14 208Z" fill="#D5D5D5"/>
</svg>
