<svg width="265" height="212" viewBox="0 0 265 212" fill="none" xmlns="http://www.w3.org/2000/svg">
<path d="M229.517 0H35.3103C15.809 0 0 15.809 0 35.3103V176.552C0 196.053 15.809 211.862 35.3103 211.862H229.517C249.019 211.862 264.828 196.053 264.828 176.552V35.3103C264.828 15.809 249.019 0 229.517 0Z" fill="#2FA8CC"/>
<path d="M163.31 79.4483C175.499 79.4483 185.379 69.5677 185.379 57.3793C185.379 45.191 175.499 35.3104 163.31 35.3104C151.122 35.3104 141.241 45.191 141.241 57.3793C141.241 69.5677 151.122 79.4483 163.31 79.4483Z" fill="#F0C419"/>
<path d="M264.828 97.1035V176.552C264.828 196.053 249.019 211.862 229.517 211.862H169.225C168.937 188.921 160.558 166.819 145.567 149.451C172.05 120.408 215.217 100.458 264.828 97.1035Z" fill="#26B99A"/>
<path d="M169.225 211.862H35.3103C15.809 211.862 0 196.053 0 176.552V91.9835C2.47172 91.8952 4.85517 91.8069 7.3269 91.8069C51.3572 90.8396 94.3457 105.263 128.883 132.59C134.965 137.67 140.551 143.316 145.567 149.451C160.558 166.819 168.937 188.921 169.225 211.862Z" fill="#65DDB9"/>
</svg>
