<svg width="13" height="13" viewBox="0 0 13 13" fill="none" xmlns="http://www.w3.org/2000/svg">
<path fill-rule="evenodd" clip-rule="evenodd" d="M9.12762 5.61364C9.12762 7.73492 7.46745 9.45455 5.41952 9.45455C3.3716 9.45455 1.71143 7.73492 1.71143 5.61364C1.71143 3.49236 3.3716 1.77273 5.41952 1.77273C7.46745 1.77273 9.12762 3.49236 9.12762 5.61364ZM8.85259 9.95754C7.91786 10.7511 6.72238 11.2273 5.41952 11.2273C2.4264 11.2273 0 8.71397 0 5.61364C0 2.51331 2.4264 0 5.41952 0C8.41264 0 10.839 2.51331 10.839 5.61364C10.839 6.72378 10.5279 7.75866 9.99112 8.62983L13 11.7465L11.7898 13L8.85259 9.95754Z" fill="black"/>
</svg>
